<svg width="31" height="27" viewBox="0 0 31 27" fill="none" xmlns="http://www.w3.org/2000/svg">
<path d="M11.4641 7.75105C11.4641 5.72675 13.1459 4.08716 15.2223 4.08716C17.2987 4.08716 18.9805 5.72675 18.9805 7.75105V13.9797C18.9805 16.004 17.2987 17.6436 15.2223 17.6436C13.1459 17.6436 11.4641 16.004 11.4641 13.9797V7.75105Z" fill="#6396E3"/>
<path d="M26.3065 0C28.3829 0 30.0647 1.65059 30.0647 3.68847V23.0529C30.0647 25.0908 28.3829 26.7414 26.3065 26.7414C24.2301 26.7414 22.5483 25.0908 22.5483 23.0529V3.68847C22.5483 1.65059 24.2301 0 26.3065 0Z" fill="#6396E3"/>
<path d="M0.000732422 3.69354C0.000732422 1.65313 1.68252 0.000488281 3.75892 0.000488281C5.83532 0.000488281 7.5171 1.65313 7.5171 3.69354V23.0489C7.5171 25.0874 5.83532 26.7419 3.75892 26.7419C1.68252 26.7419 0.000732422 25.0874 0.000732422 23.0489V3.69354Z" fill="#6396E3"/>
<path fill-rule="evenodd" clip-rule="evenodd" d="M3.75819 27.0001C1.68179 27.0001 0 25.338 0 23.286V13.5532C0 13.5532 2.07264 13.9358 3.76382 13.9358C5.45501 13.9358 7.51637 13.5532 7.51637 13.5532V23.286C7.51637 25.3362 5.83458 27.0001 3.75819 27.0001Z" fill="#FB9B7A"/>
</svg>
