<svg width="360" height="314" viewBox="0 0 360 314" fill="none" xmlns="http://www.w3.org/2000/svg">
<g clip-path="url(#clip0)">
<path d="M236.83 138.048H122.335C121.073 138.048 120.05 139.071 120.05 140.333V182.084V187.983V261.715C120.05 262.977 121.073 264 122.335 264H236.83C238.093 264 239.115 262.977 239.115 261.715V140.333C239.115 139.071 238.092 138.048 236.83 138.048Z" fill="#C8D2DC"/>
<path d="M236.831 138.048H232.05C233.208 138.048 234.147 139.071 234.147 140.333V261.715C234.147 262.977 233.208 264 232.05 264H236.831C238.093 264 239.116 262.977 239.116 261.715V140.333C239.116 139.071 238.093 138.048 236.831 138.048Z" fill="#ADB8C2"/>
<path d="M236.831 165.515H218.39C219.729 161.77 220.46 157.736 220.46 153.53C220.46 148.867 219.562 144.414 217.932 140.333H151.797C150.167 144.415 149.269 148.867 149.269 153.53C149.269 157.736 150 161.77 151.339 165.515H122.336V174.892C122.336 176.239 123.428 177.331 124.775 177.331H161.743C167.963 182.651 176.038 185.865 184.865 185.865C193.691 185.865 201.766 182.651 207.986 177.331H236.831V165.515Z" fill="#ADB8C2"/>
<path d="M174.713 196.603H136.282C135.02 196.603 133.997 197.626 133.997 198.888V261.715C133.997 262.977 135.02 264 136.282 264H174.713C175.975 264 176.998 262.977 176.998 261.715V198.888C176.998 197.626 175.975 196.603 174.713 196.603Z" fill="#FB9B7A"/>
<path d="M224.398 196.603H187.146C185.883 196.603 184.861 197.626 184.861 198.888V233.622C184.861 234.884 185.883 235.907 187.146 235.907H224.398C225.661 235.907 226.684 234.884 226.684 233.622V198.888C226.684 197.626 225.66 196.603 224.398 196.603Z" fill="#E0ECFF"/>
<path d="M245.169 155.581H136.815H130.336H113.998C112.735 155.581 111.712 156.604 111.712 157.866V172.944C111.712 174.206 112.735 175.229 113.998 175.229H139.528H202.937H245.169C246.431 175.229 247.454 174.206 247.454 172.944V157.866C247.454 156.604 246.431 155.581 245.169 155.581Z" fill="#FB9B7A"/>
<path d="M245.169 155.581H235.767C236.94 155.581 237.891 156.604 237.891 157.866V172.944C237.891 174.206 236.94 175.229 235.767 175.229H245.169C246.431 175.229 247.454 174.206 247.454 172.944V157.866C247.454 156.604 246.431 155.581 245.169 155.581Z" fill="#F47C53"/>
<path d="M180.554 108C159.667 108 142.674 124.993 142.674 145.881C142.674 166.769 159.667 183.762 180.554 183.762C201.442 183.762 218.435 166.769 218.435 145.881C218.435 124.993 201.442 108 180.554 108Z" fill="#E0ECFF"/>
<path d="M135.821 263.695C130.743 270.805 115.955 286.608 97.4304 292.945C78.9054 299.283 58.8367 311.836 51.1179 317.32" stroke="black" stroke-width="0.186717"/>
<line x1="113.615" y1="262.277" x2="245.624" y2="262.277" stroke="#173760" stroke-width="3.44502" stroke-linecap="round" stroke-linejoin="round"/>
</g>
<path d="M140.607 238.044C139.484 238.044 138.575 237.076 138.575 235.882V229.03C138.575 227.836 139.484 226.868 140.607 226.868C141.729 226.868 142.639 227.836 142.639 229.03V235.882C142.639 237.076 141.729 238.044 140.607 238.044Z" fill="#173760"/>
<path d="M176.081 139.788C176.081 137.334 178.105 135.347 180.603 135.347C183.101 135.347 185.124 137.334 185.124 139.788V147.338C185.124 149.791 183.101 151.779 180.603 151.779C178.105 151.779 176.081 149.791 176.081 147.338V139.788Z" fill="#6396E3"/>
<path d="M193.939 130.393C196.437 130.393 198.461 132.393 198.461 134.864V158.336C198.461 160.806 196.437 162.807 193.939 162.807C191.441 162.807 189.417 160.806 189.417 158.336V134.864C189.417 132.393 191.441 130.393 193.939 130.393Z" fill="#6396E3"/>
<path d="M162.29 134.871C162.29 132.397 164.313 130.394 166.811 130.394C169.31 130.394 171.333 132.397 171.333 134.871V158.332C171.333 160.803 169.31 162.808 166.811 162.808C164.313 162.808 162.29 160.803 162.29 158.332V134.871Z" fill="#6396E3"/>
<path fill-rule="evenodd" clip-rule="evenodd" d="M166.81 163.12C164.311 163.12 162.288 161.106 162.288 158.618V146.821C162.288 146.821 164.782 147.285 166.816 147.285C168.851 147.285 171.331 146.821 171.331 146.821V158.618C171.331 161.103 169.308 163.12 166.81 163.12Z" fill="#FB9B7A"/>
<defs>
<clipPath id="clip0">
<rect width="156" height="156" fill="white" transform="translate(102 108)"/>
</clipPath>
</defs>
</svg>
