<svg width="360" height="314" viewBox="0 0 360 314" fill="none" xmlns="http://www.w3.org/2000/svg">
<path d="M123.113 261.647H121.238C121.028 261.407 120.825 261.164 120.626 260.92C116.355 255.712 113.462 249.507 112.213 242.879C110.698 234.607 111.877 226.065 115.576 218.519C116.608 216.403 117.824 214.382 119.21 212.481C119.703 212.586 120.188 212.706 120.666 212.851C117.02 217.699 114.568 223.343 113.509 229.324C112.565 234.927 112.879 240.672 114.428 246.138C115.978 251.604 118.723 256.655 122.465 260.92C122.674 261.164 122.892 261.407 123.113 261.647Z" fill="white"/>
<path d="M163.287 209.206H128.544L128.176 198.484C128.16 198.019 128.245 197.557 128.424 197.128C128.603 196.699 128.873 196.314 129.215 196C129.556 195.686 129.962 195.45 130.403 195.308C130.844 195.166 131.311 195.122 131.771 195.179L151.989 197.663H151.991C154.988 197.672 157.86 198.872 159.978 201.001C162.095 203.131 163.285 206.016 163.287 209.024V209.206Z" fill="#C1C1C1"/>
<path d="M147.802 171.175H123.571C123.249 171.175 122.93 171.239 122.632 171.362C122.334 171.486 122.064 171.667 121.836 171.896C121.608 172.125 121.427 172.396 121.304 172.695C121.181 172.994 121.117 173.314 121.117 173.638V197.958C121.117 198.282 121.181 198.602 121.304 198.901C121.427 199.2 121.608 199.471 121.836 199.7C122.064 199.929 122.334 200.11 122.632 200.234C122.93 200.358 123.249 200.421 123.571 200.421H147.802C148.125 200.421 148.444 200.358 148.741 200.234C149.039 200.11 149.31 199.929 149.538 199.7C149.766 199.471 149.946 199.2 150.07 198.901C150.193 198.602 150.256 198.282 150.256 197.958V173.638C150.256 173.314 150.193 172.994 150.07 172.695C149.946 172.396 149.766 172.125 149.538 171.896C149.31 171.667 149.039 171.486 148.741 171.362C148.444 171.239 148.125 171.175 147.802 171.175Z" fill="#FFE7DC"/>
<path d="M150.256 173.638V176.87H121.117V173.638C121.117 173.314 121.181 172.994 121.304 172.695C121.427 172.396 121.608 172.125 121.836 171.896C122.064 171.667 122.334 171.486 122.632 171.362C122.93 171.239 123.249 171.175 123.571 171.175H147.802C148.125 171.175 148.444 171.239 148.741 171.362C149.039 171.486 149.31 171.667 149.538 171.896C149.766 172.125 149.946 172.396 150.07 172.695C150.193 172.994 150.256 173.314 150.256 173.638Z" fill="#FB9B7A"/>
<path d="M208.444 177.883C208.275 177.338 207.99 176.836 207.608 176.414C207.226 175.991 206.756 175.658 206.232 175.438C205.707 175.217 205.141 175.115 204.573 175.138C204.005 175.161 203.449 175.308 202.944 175.57L169.607 163.566L168.139 171.924L201.37 181.096C201.864 181.918 202.642 182.53 203.556 182.815C204.47 183.1 205.457 183.039 206.329 182.643C207.201 182.247 207.898 181.543 208.287 180.666C208.677 179.789 208.733 178.798 208.444 177.883Z" fill="#FFB8B8"/>
<path opacity="0.2" d="M208.444 177.883C208.275 177.338 207.99 176.836 207.608 176.414C207.226 175.991 206.756 175.658 206.232 175.438C205.707 175.217 205.141 175.115 204.573 175.138C204.005 175.161 203.449 175.308 202.944 175.57L169.607 163.566L168.139 171.924L201.37 181.096C201.864 181.918 202.642 182.53 203.556 182.815C204.47 183.1 205.457 183.039 206.329 182.643C207.201 182.247 207.898 181.543 208.287 180.666C208.677 179.789 208.733 178.798 208.444 177.883Z" fill="#E7A293"/>
<path d="M175.525 165.089L172.377 173.343C172.287 173.578 172.148 173.791 171.969 173.967C171.79 174.143 171.576 174.278 171.34 174.364C171.104 174.449 170.853 174.482 170.604 174.461C170.354 174.441 170.112 174.366 169.893 174.243L162.242 169.921C161.048 169.454 160.087 168.531 159.569 167.353C159.052 166.176 159.021 164.841 159.482 163.641C159.944 162.441 160.861 161.473 162.032 160.951C163.204 160.428 164.534 160.393 165.731 160.853L174.274 162.755C174.519 162.809 174.749 162.916 174.949 163.068C175.148 163.22 175.313 163.413 175.432 163.634C175.551 163.856 175.62 164.1 175.636 164.351C175.652 164.602 175.614 164.854 175.525 165.089Z" fill="#CBDFFD"/>
<path d="M211.068 185.526L199.123 190.975L200.691 196.901C203.719 208.345 204.523 220.266 203.058 232.015L211.792 233.846L219.031 215.317L216.497 194.245L211.068 185.526Z" fill="#C1C1C1"/>
<path d="M234.506 212.955C226.657 212.955 220.261 218.682 219.951 225.853H249.06C248.75 218.682 242.354 212.955 234.506 212.955Z" fill="#6396E3"/>
<path d="M228.396 214.191C227.987 181.821 209.62 184.799 209.62 184.799C209.62 184.799 209.963 194.875 210.128 195.188C221.833 217.415 202.516 243.473 177.927 238.679C177.464 238.589 177.018 238.497 176.591 238.404C173.475 237.751 170.725 235.932 168.898 233.316C167.072 230.699 166.306 227.483 166.759 224.321C169.181 204.799 157.133 205.144 157.133 205.144H139.517L130.369 196.88C130.046 196.589 129.657 196.381 129.235 196.275C128.814 196.169 128.373 196.169 127.951 196.273C127.53 196.378 127.14 196.585 126.816 196.876C126.493 197.166 126.245 197.532 126.095 197.942L124.918 201.148C124.918 201.148 107.543 202.964 108.991 220.04H114.362C114.349 220.525 114.369 221.01 114.42 221.493L154.509 221.166C156.859 221.147 158.934 223.058 158.943 225.416C158.946 225.991 158.833 226.559 158.611 227.089C158.389 227.618 158.063 228.097 157.653 228.497C157.243 228.897 156.756 229.21 156.222 229.417C155.689 229.624 155.119 229.721 154.547 229.702L148.084 229.486C146.093 238.387 150.98 244.381 156.364 248.151C161.434 251.648 167.449 253.502 173.601 253.464H191.159C213.963 253.464 217.945 234.209 217.945 234.209C229.89 229.122 228.396 214.191 228.396 214.191Z" fill="#6396E3"/>
<path d="M233.42 264C244.665 264 253.781 254.85 253.781 243.564C253.781 232.277 244.665 223.128 233.42 223.128C222.175 223.128 213.059 232.277 213.059 243.564C213.059 254.85 222.175 264 233.42 264Z" fill="#C1C1C1"/>
<path d="M233.42 248.573C236.176 248.573 238.41 246.33 238.41 243.564C238.41 240.798 236.176 238.555 233.42 238.555C230.664 238.555 228.429 240.798 228.429 243.564C228.429 246.33 230.664 248.573 233.42 248.573Z" fill="white"/>
<path d="M130.619 264C143.563 264 154.057 253.468 154.057 240.476C154.057 227.484 143.563 216.952 130.619 216.952C117.674 216.952 107.181 227.484 107.181 240.476C107.181 253.468 117.674 264 130.619 264Z" fill="#C1C1C1"/>
<path d="M130.619 246.242C133.791 246.242 136.363 243.66 136.363 240.476C136.363 237.291 133.791 234.71 130.619 234.71C127.446 234.71 124.874 237.291 124.874 240.476C124.874 243.66 127.446 246.242 130.619 246.242Z" fill="white"/>
<path d="M199.156 192.586L194.858 180.869C194.634 180.258 194.532 179.609 194.558 178.959C194.584 178.309 194.738 177.67 195.009 177.08C195.281 176.489 195.666 175.958 196.143 175.516C196.619 175.075 197.177 174.732 197.786 174.507L210.107 169.955C211.178 169.559 212.315 169.379 213.455 169.424C214.595 169.47 215.715 169.741 216.751 170.221C217.786 170.701 218.718 171.381 219.491 172.222C220.265 173.063 220.866 174.049 221.261 175.123C221.616 176.088 221.797 177.108 221.797 178.136C221.792 179.442 221.498 180.73 220.935 181.907C220.372 183.084 219.555 184.12 218.543 184.941C217.812 185.529 216.991 185.994 216.111 186.317L199.156 192.586Z" fill="#6396E3"/>
<path d="M221.616 178.136C221.615 179.415 221.328 180.677 220.777 181.831C220.225 182.984 219.424 183.998 218.43 184.799C216.906 184.396 215.488 183.664 214.274 182.655C213.06 181.645 212.08 180.383 211.401 178.955C210.723 177.527 210.362 175.968 210.344 174.386C210.327 172.804 210.653 171.237 211.299 169.795C212.541 169.524 213.827 169.535 215.064 169.828C216.3 170.122 217.456 170.689 218.445 171.489C219.435 172.289 220.233 173.301 220.782 174.452C221.33 175.602 221.615 176.861 221.616 178.136Z" fill="#C1C1C1"/>
<path d="M112.068 222.401C114.866 222.401 117.135 219.636 117.135 216.225C117.135 212.814 114.866 210.049 112.068 210.049C109.269 210.049 107 212.814 107 216.225C107 219.636 109.269 222.401 112.068 222.401Z" fill="#C1C1C1"/>
<path d="M179.055 238.087H183.493L185.604 226.535L179.054 226.536L179.055 238.087Z" fill="#FFC6BA"/>
<path d="M177.923 236.633L186.663 236.633H186.663C187.394 236.633 188.119 236.778 188.794 237.058C189.47 237.339 190.084 237.751 190.601 238.27C191.118 238.789 191.529 239.405 191.808 240.084C192.088 240.762 192.232 241.489 192.232 242.223V242.405L177.923 242.405L177.923 236.633Z" fill="#2F2E41"/>
<path d="M184.206 233.346C184.155 233.346 184.103 233.344 184.051 233.339L177.909 232.89C177.661 232.867 177.421 232.787 177.208 232.656C176.996 232.525 176.816 232.347 176.683 232.135C176.549 231.924 176.466 231.684 176.44 231.435C176.414 231.186 176.444 230.935 176.53 230.699L184.749 212.166C184.808 212 184.832 211.825 184.82 211.65C184.808 211.475 184.76 211.304 184.678 211.149C184.598 210.991 184.484 210.853 184.346 210.743C184.208 210.633 184.049 210.553 183.878 210.509C180.013 209.495 170.097 206.795 161.513 203.636C157.835 202.283 155.519 200.327 154.629 197.823C153.455 194.521 155.191 191.511 155.266 191.384L155.324 191.285L163.401 192.022L172.158 192.77L191.348 203.098C192.956 203.97 194.177 205.419 194.768 207.155C195.36 208.891 195.278 210.787 194.54 212.465L185.693 232.377C185.565 232.666 185.356 232.911 185.092 233.083C184.829 233.255 184.521 233.346 184.206 233.346Z" fill="#2F2E41"/>
<path d="M165.017 155.775C169.927 155.775 173.907 151.78 173.907 146.852C173.907 141.924 169.927 137.929 165.017 137.929C160.107 137.929 156.126 141.924 156.126 146.852C156.126 151.78 160.107 155.775 165.017 155.775Z" fill="#FFC6BA"/>
<path d="M176.732 239.599H181.17L183.282 228.047L176.732 228.047L176.732 239.599Z" fill="#FFC6BA"/>
<path d="M175.389 237.723L184.129 237.723H184.129C184.861 237.723 185.585 237.867 186.261 238.148C186.936 238.429 187.55 238.841 188.067 239.36C188.585 239.879 188.995 240.495 189.275 241.174C189.555 241.852 189.699 242.579 189.699 243.313V243.494L175.39 243.495L175.389 237.723Z" fill="#2F2E41"/>
<path d="M181.672 234.436C181.621 234.436 181.569 234.434 181.517 234.429L175.375 233.98C175.127 233.957 174.887 233.877 174.674 233.746C174.462 233.615 174.282 233.437 174.149 233.225C174.015 233.014 173.932 232.774 173.906 232.525C173.88 232.276 173.911 232.024 173.996 231.789L182.216 213.255C182.274 213.09 182.298 212.914 182.286 212.739C182.274 212.564 182.226 212.394 182.144 212.239C182.064 212.081 181.95 211.943 181.812 211.833C181.675 211.723 181.515 211.643 181.344 211.599C177.479 210.585 167.563 207.885 158.979 204.726C155.301 203.373 152.985 201.417 152.095 198.913C150.921 195.611 152.657 192.6 152.732 192.474L152.79 192.375L160.868 193.112L169.624 193.86L188.814 204.188C190.422 205.06 191.643 206.509 192.234 208.245C192.826 209.981 192.744 211.877 192.006 213.555L183.159 233.467C183.031 233.756 182.822 234 182.558 234.172C182.295 234.344 181.987 234.436 181.672 234.436Z" fill="#2F2E41"/>
<path d="M167.548 160.414L158.136 157.144C158.136 157.144 152.228 161.7 155.066 173.002C156.548 178.834 156.117 184.99 153.836 190.557C153.561 191.246 153.244 191.917 152.888 192.566C152.888 192.566 163.385 205.282 173.158 195.836L169.358 177.489C169.358 177.489 175.33 165.318 167.548 160.414Z" fill="#CBDFFD"/>
<path d="M165.91 155.657C164.644 153.756 163.646 151.12 165.039 149.312C166.414 147.526 169.126 147.789 171.232 146.999C174.166 145.899 175.867 142.44 175.337 139.343C174.806 136.245 172.328 133.677 169.377 132.626C166.426 131.576 163.097 131.917 160.207 133.127C156.649 134.617 153.597 137.498 152.317 141.148C151.037 144.797 151.721 149.18 154.377 151.985C157.223 154.993 161.69 155.794 165.823 155.746" fill="#2F2E41"/>
<path d="M157.64 139.442C156.045 140.745 153.612 140.166 151.901 139.023C150.189 137.879 148.801 136.251 146.949 135.355C143.684 133.775 139.737 134.825 136.559 136.576C133.382 138.326 130.565 140.745 127.209 142.118C123.853 143.492 119.57 143.56 117.029 140.966C116.403 142.785 116.352 144.753 116.882 146.602C117.412 148.451 118.498 150.09 119.991 151.297C121.484 152.504 123.311 153.219 125.224 153.345C127.137 153.471 129.042 153.001 130.679 152C134.356 149.752 136.388 145.038 140.512 143.797C142.795 143.11 145.246 143.663 147.552 144.262C149.859 144.861 152.264 145.509 154.592 144.999C156.92 144.489 159.098 142.389 158.802 140.016L157.64 139.442Z" fill="#2F2E41"/>
<path d="M208.213 177.941C207.979 177.421 207.634 176.959 207.203 176.587C206.772 176.215 206.265 175.942 205.717 175.789C205.17 175.635 204.595 175.603 204.034 175.696C203.474 175.789 202.94 176.005 202.471 176.327L167.913 168.543L167.484 177.019L201.588 182.006C202.18 182.761 203.027 183.271 203.969 183.441C204.911 183.611 205.882 183.428 206.699 182.927C207.516 182.426 208.121 181.641 208.4 180.722C208.679 179.804 208.612 178.814 208.213 177.941Z" fill="#FFC6BA"/>
<path d="M173.761 168.9L171.652 177.481C171.592 177.725 171.48 177.953 171.324 178.15C171.168 178.347 170.972 178.508 170.749 178.622C170.525 178.736 170.28 178.8 170.03 178.81C169.779 178.82 169.53 178.776 169.298 178.681L161.174 175.339C159.931 175.025 158.862 174.228 158.204 173.124C157.545 172.019 157.349 170.698 157.66 169.449C157.971 168.2 158.763 167.126 159.861 166.462C160.96 165.799 162.277 165.6 163.522 165.909L172.233 166.738C172.483 166.762 172.724 166.84 172.941 166.966C173.158 167.091 173.345 167.263 173.49 167.468C173.635 167.673 173.735 167.907 173.781 168.154C173.828 168.401 173.821 168.655 173.761 168.9V168.9Z" fill="#CBDFFD"/>
<path d="M204.009 184.254C205.409 184.254 206.543 183.116 206.543 181.711C206.543 180.306 205.409 179.168 204.009 179.168C202.61 179.168 201.475 180.306 201.475 181.711C201.475 183.116 202.61 184.254 204.009 184.254Z" fill="#8594AA"/>
<path d="M134.046 184.416C134.046 183.536 134.775 182.823 135.675 182.823C136.575 182.823 137.304 183.536 137.304 184.416V187.124C137.304 188.004 136.575 188.717 135.675 188.717C134.775 188.717 134.046 188.004 134.046 187.124V184.416Z" fill="#6396E3"/>
<path d="M140.479 181.047C141.379 181.047 142.108 181.764 142.108 182.65V191.068C142.108 191.954 141.379 192.672 140.479 192.672C139.579 192.672 138.85 191.954 138.85 191.068V182.65C138.85 181.764 139.579 181.047 140.479 181.047Z" fill="#6396E3"/>
<path d="M129.078 182.652C129.078 181.765 129.807 181.047 130.707 181.047C131.607 181.047 132.335 181.765 132.335 182.652V191.067C132.335 191.953 131.607 192.672 130.707 192.672C129.807 192.672 129.078 191.953 129.078 191.067V182.652Z" fill="#6396E3"/>
<path fill-rule="evenodd" clip-rule="evenodd" d="M130.706 192.784C129.806 192.784 129.077 192.062 129.077 191.169V186.938C129.077 186.938 129.975 187.105 130.708 187.105C131.441 187.105 132.335 186.938 132.335 186.938V191.169C132.335 192.061 131.606 192.784 130.706 192.784Z" fill="#FB9B7A"/>
</svg>
