<svg width="1439" height="661" viewBox="0 0 1439 661" fill="none" xmlns="http://www.w3.org/2000/svg">
<path fill-rule="evenodd" clip-rule="evenodd" d="M-494.417 -1080.67C-286.503 -1292.58 -130.688 -1585.84 149.685 -1667.67C425.54 -1748.18 659.654 -1577.07 905.128 -1489.13C1122.14 -1411.38 1374.13 -1369.85 1494.61 -1185.82C1613.27 -1004.55 1544.28 -754.997 1535.7 -525.897C1526.61 -283.46 1625.31 -8.8226 1443.11 188.515C1259.94 386.886 946.215 303.96 692.369 387.463C455.746 465.3 246.171 674.223 11.1087 659.571C-239.049 643.979 -399.366 456.558 -575.943 308.407C-804.334 116.782 -1183.66 -14.022 -1165.27 -327.432C-1146.94 -639.668 -736.643 -833.781 -494.417 -1080.67Z" fill="#F2F7FF"/>
</svg>
