<svg width="150" height="27" viewBox="0 0 150 27" fill="none" xmlns="http://www.w3.org/2000/svg">
<path d="M44.1053 25.5639C41.5276 25.5639 39.5095 24.8146 38.0508 23.3159C36.6021 21.8073 35.8777 19.7342 35.8777 17.0965C35.8777 14.389 36.5521 12.2609 37.9009 10.7123C39.2497 9.16372 41.103 8.38942 43.4609 8.38942C45.6489 8.38942 47.3773 9.05382 48.6462 10.3826C49.915 11.7114 50.5495 13.5398 50.5495 15.8677V17.7709H39.5045C39.5544 19.3795 39.989 20.6184 40.8083 21.4876C41.6275 22.3468 42.7815 22.7764 44.2702 22.7764C45.2493 22.7764 46.1584 22.6865 46.9977 22.5067C47.8469 22.3168 48.7561 22.0071 49.7252 21.5775V24.4399C48.866 24.8495 47.9968 25.1393 47.1176 25.3091C46.2384 25.479 45.2343 25.5639 44.1053 25.5639ZM43.4609 11.057C42.3419 11.057 41.4427 11.4117 40.7633 12.121C40.0939 12.8304 39.6943 13.8645 39.5644 15.2232H47.0876C47.0676 13.8545 46.7379 12.8204 46.0985 12.121C45.4591 11.4117 44.5799 11.057 43.4609 11.057ZM59.8339 25.5639C57.7657 25.5639 56.1522 24.8146 54.9933 23.3159C53.8343 21.8173 53.2548 19.7142 53.2548 17.0066C53.2548 14.2891 53.8393 12.176 55.0082 10.6674C56.1872 9.14873 57.8157 8.38942 59.8938 8.38942C62.0719 8.38942 63.7304 9.19369 64.8693 10.8022H65.0492C64.8793 9.61331 64.7944 8.67416 64.7944 7.98478V1.94524H68.3312V25.2642H65.5737L64.9592 23.0911H64.7944C63.6654 24.7396 62.0119 25.5639 59.8339 25.5639ZM60.778 22.7165C62.2267 22.7165 63.2808 22.3118 63.9402 21.5026C64.5996 20.6833 64.9393 19.3595 64.9592 17.5312V17.0366C64.9592 14.9485 64.6196 13.4648 63.9402 12.5856C63.2608 11.7064 62.1967 11.2668 60.7481 11.2668C59.5092 11.2668 58.555 11.7714 57.8856 12.7804C57.2162 13.7795 56.8815 15.2083 56.8815 17.0666C56.8815 18.9049 57.2063 20.3086 57.8557 21.2778C58.5051 22.2369 59.4792 22.7165 60.778 22.7165ZM76.5815 25.2642H73.0597V8.68915H76.5815V25.2642ZM72.8499 4.29812C72.8499 3.66869 73.0198 3.18412 73.3594 2.84443C73.7091 2.50474 74.2037 2.33489 74.8431 2.33489C75.4625 2.33489 75.9421 2.50474 76.2818 2.84443C76.6315 3.18412 76.8063 3.66869 76.8063 4.29812C76.8063 4.89757 76.6315 5.37215 76.2818 5.72183C75.9421 6.06152 75.4625 6.23137 74.8431 6.23137C74.2037 6.23137 73.7091 6.06152 73.3594 5.72183C73.0198 5.37215 72.8499 4.89757 72.8499 4.29812ZM92.46 20.5434C92.46 22.162 91.8705 23.4058 90.6916 24.2751C89.5126 25.1343 87.8242 25.5639 85.6262 25.5639C83.4182 25.5639 81.6448 25.2292 80.306 24.5598V21.5175C82.2542 22.4167 84.0676 22.8663 85.746 22.8663C87.9141 22.8663 88.9981 22.2119 88.9981 20.9031C88.9981 20.4835 88.8782 20.1338 88.6384 19.8541C88.3987 19.5743 88.004 19.2846 87.4545 18.9848C86.905 18.6851 86.1407 18.3454 85.1616 17.9658C83.2533 17.2264 81.9595 16.4871 81.2801 15.7478C80.6107 15.0084 80.276 14.0493 80.276 12.8704C80.276 11.4516 80.8455 10.3526 81.9845 9.57335C83.1334 8.78406 84.692 8.38942 86.6602 8.38942C88.6085 8.38942 90.4518 8.78406 92.1902 9.57335L91.0513 12.2259C89.2629 11.4866 87.7592 11.117 86.5403 11.117C84.682 11.117 83.7529 11.6465 83.7529 12.7055C83.7529 13.225 83.9926 13.6646 84.4722 14.0243C84.9618 14.384 86.0208 14.8786 87.6493 15.508C89.0181 16.0375 90.0122 16.5221 90.6316 16.9617C91.2511 17.4013 91.7107 17.9108 92.0104 18.4903C92.3101 19.0598 92.46 19.7442 92.46 20.5434ZM103.213 25.5639C100.635 25.5639 98.6172 24.8146 97.1585 23.3159C95.7098 21.8073 94.9855 19.7342 94.9855 17.0965C94.9855 14.389 95.6599 12.2609 97.0087 10.7123C98.3574 9.16372 100.211 8.38942 102.569 8.38942C104.757 8.38942 106.485 9.05382 107.754 10.3826C109.023 11.7114 109.657 13.5398 109.657 15.8677V17.7709H98.6122C98.6622 19.3795 99.0968 20.6184 99.916 21.4876C100.735 22.3468 101.889 22.7764 103.378 22.7764C104.357 22.7764 105.266 22.6865 106.105 22.5067C106.955 22.3168 107.864 22.0071 108.833 21.5775V24.4399C107.974 24.8495 107.105 25.1393 106.225 25.3091C105.346 25.479 104.342 25.5639 103.213 25.5639ZM102.569 11.057C101.45 11.057 100.55 11.4117 99.8711 12.121C99.2017 12.8304 98.802 13.8645 98.6722 15.2232H106.195C106.175 13.8545 105.846 12.8204 105.206 12.121C104.567 11.4117 103.688 11.057 102.569 11.057ZM127.934 25.2642H124.397V15.0734C124.397 13.7945 124.137 12.8404 123.617 12.211C123.108 11.5815 122.294 11.2668 121.175 11.2668C119.686 11.2668 118.597 11.7064 117.908 12.5856C117.218 13.4648 116.874 14.9385 116.874 17.0066V25.2642H113.352V8.68915H116.109L116.604 10.8622H116.784C117.283 10.0729 117.992 9.46345 118.912 9.03383C119.831 8.60422 120.85 8.38942 121.969 8.38942C125.945 8.38942 127.934 10.4126 127.934 14.4589V25.2642ZM138.117 25.5639C136.049 25.5639 134.435 24.8146 133.276 23.3159C132.118 21.8173 131.538 19.7142 131.538 17.0066C131.538 14.2891 132.123 12.176 133.291 10.6674C134.47 9.14873 136.099 8.38942 138.177 8.38942C140.355 8.38942 142.014 9.19369 143.153 10.8022H143.332C143.163 9.61331 143.078 8.67416 143.078 7.98478V1.94524H146.614V25.2642H143.857L143.242 23.0911H143.078C141.949 24.7396 140.295 25.5639 138.117 25.5639ZM139.061 22.7165C140.51 22.7165 141.564 22.3118 142.223 21.5026C142.883 20.6833 143.222 19.3595 143.242 17.5312V17.0366C143.242 14.9485 142.903 13.4648 142.223 12.5856C141.544 11.7064 140.48 11.2668 139.031 11.2668C137.792 11.2668 136.838 11.7714 136.169 12.7804C135.499 13.7795 135.165 15.2083 135.165 17.0666C135.165 18.9049 135.489 20.3086 136.139 21.2778C136.788 22.2369 137.762 22.7165 139.061 22.7165Z" fill="#6396E3"/>
<path d="M11.4641 7.75105C11.4641 5.72675 13.1459 4.08716 15.2223 4.08716C17.2987 4.08716 18.9805 5.72675 18.9805 7.75105V13.9797C18.9805 16.004 17.2987 17.6436 15.2223 17.6436C13.1459 17.6436 11.4641 16.004 11.4641 13.9797V7.75105Z" fill="#6396E3"/>
<path d="M26.3065 0C28.3829 0 30.0647 1.65059 30.0647 3.68847V23.0529C30.0647 25.0908 28.3829 26.7414 26.3065 26.7414C24.2301 26.7414 22.5483 25.0908 22.5483 23.0529V3.68847C22.5483 1.65059 24.2301 0 26.3065 0Z" fill="#6396E3"/>
<path d="M0.000732422 3.69354C0.000732422 1.65313 1.68252 0.000488281 3.75892 0.000488281C5.83532 0.000488281 7.5171 1.65313 7.5171 3.69354V23.0489C7.5171 25.0874 5.83532 26.7419 3.75892 26.7419C1.68252 26.7419 0.000732422 25.0874 0.000732422 23.0489V3.69354Z" fill="#6396E3"/>
<path fill-rule="evenodd" clip-rule="evenodd" d="M3.75819 27.0001C1.68179 27.0001 0 25.338 0 23.286V13.5532C0 13.5532 2.07264 13.9358 3.76382 13.9358C5.45501 13.9358 7.51637 13.5532 7.51637 13.5532V23.286C7.51637 25.3362 5.83458 27.0001 3.75819 27.0001Z" fill="#FB9B7A"/>
</svg>
