<svg width="1439" height="249" viewBox="0 0 1439 249" fill="none" xmlns="http://www.w3.org/2000/svg">
<path fill-rule="evenodd" clip-rule="evenodd" d="M137.747 -1936.73C455.923 -2100.16 747.328 -2374.38 1096.06 -2364.61C1439.18 -2354.99 1636.07 -2076.6 1878.54 -1887.93C2092.9 -1721.13 2361.01 -1582.48 2424.52 -1330.9C2487.08 -1083.09 2310.91 -826.572 2210.98 -571.137C2105.23 -300.831 2108.48 45.0772 1825.06 201.423C1540.16 358.587 1218.66 150.719 899.211 152.495C601.436 154.151 282.56 313.603 22.9764 211.444C-253.278 102.725 -360.435 -167.195 -501.413 -398.717C-683.761 -698.18 -1060.45 -983.978 -916.242 -1330.99C-772.572 -1676.71 -232.939 -1746.33 137.747 -1936.73Z" fill="#F2F7FF"/>
</svg>
