<svg width="305" height="38" viewBox="0 0 305 38" fill="none" xmlns="http://www.w3.org/2000/svg">
<g clip-path="url(#clip0_118_118)">
<path d="M66.1 0.0999756H67.6C70.9 0.199976 74.3 0.899976 77.2 2.69998C79.6 4.19998 81.4 6.39998 82.4 8.99998C83.1 10.7 83.5 12.6 83.6 14.4C80 14.4 76.4 14.4 72.8 14.4C72.7 12.9 72.2 11.3 71 10.3C69.8 9.19998 68.1 8.89998 66.5 8.99998C65.1 8.99998 63.7 9.49998 62.7 10.5C61.5 11.7 60.9 13.3 60.6 14.9C60.2 16.8 60.2 18.8 60.4 20.7C60.6 22.6 61 24.6 62.2 26.1C63.1 27.3 64.4 28 65.9 28.2C67.4 28.4 69 28.3 70.4 27.6C71.5 27 72.3 26 72.7 24.9C73 24.2 73.1 23.4 73.2 22.6C76.8 22.6 80.3 22.6 83.9 22.6C83.7 25.7 82.8 28.8 81 31.3C79.3 33.6 76.9 35.2 74.2 36.2C72.2 36.9 70 37.2 67.9 37.3H66.2C63.3 37.2 60.4 36.6 57.8 35.3C55.2 34 53.1 32 51.6 29.5C49.8 26.5 49 22.9 48.9 19.5C48.7 15.7 49.3 12 51 8.79998C52.3 6.19998 54.3 3.99998 56.8 2.59998C59.6 0.899976 62.8 0.0999756 66.1 0.0999756Z" fill="#CC0000"/>
<path d="M129 0.0999756H130.6C133.8 0.199976 137.1 0.799976 139.8 2.59998C141.2 3.49998 142.4 4.69998 143.2 6.09998C144.1 7.69998 144.6 9.39998 144.8 11.2C141.2 11.2 137.7 11.2 134.1 11.2C134 10.4 133.6 9.69998 133.1 9.19998C132.4 8.49998 131.3 8.29998 130.3 8.19998C129.4 8.09998 128.4 8.19997 127.5 8.39997C126.9 8.59997 126.3 8.99998 126.1 9.69998C125.9 10.3 125.9 11.1 126.3 11.6C126.6 12.1 127.2 12.4 127.8 12.6C128.8 13 129.8 13.2 130.8 13.5C132.9 14.1 135 14.5 137.1 15.1C138.5 15.5 139.8 16 141 16.7C142.3 17.5 143.5 18.6 144.4 19.9C145.3 21.2 145.7 22.8 145.8 24.4C145.9 26.3 145.6 28.3 144.8 30.1C144.2 31.5 143.2 32.8 142 33.8C139.7 35.6 136.9 36.5 134 36.9C132.9 37 131.9 37.1 130.8 37.1H129.2C126.6 37 124 36.6 121.6 35.5C119.3 34.5 117.2 32.7 116 30.5C115.1 28.9 114.6 27 114.4 25.2C118.1 25.2 121.7 25.2 125.4 25.2C125.6 26 125.9 26.9 126.5 27.5C127 28 127.6 28.4 128.3 28.5C129.2 28.7 130.2 28.8 131.1 28.7C132 28.6 133 28.5 133.8 28C134.3 27.7 134.7 27.1 134.8 26.5C134.9 25.9 134.8 25.2 134.3 24.7C133.9 24.2 133.2 24 132.6 23.8C131.5 23.5 130.5 23.2 129.4 22.9C127.4 22.4 125.5 21.9 123.5 21.2C122.1 20.7 120.7 20.3 119.4 19.5C118 18.6 116.8 17.4 116 15.9C115.2 14.3 114.9 12.4 114.9 10.6C115 8.89998 115.4 7.29998 116.2 5.79998C117 4.39998 118.2 3.19998 119.6 2.29998C122.4 0.699976 125.7 0.199976 129 0.0999756Z" fill="#CC0000"/>
<path d="M8.9 1.59998C9.8 0.699976 11.1 0.0999756 12.5 0.0999756C13.9 0.0999756 15.3 0.599976 16.3 1.59998C18.3 3.59998 20.4 5.69998 22.4 7.69998C24.4 5.69998 26.5 3.59998 28.5 1.59998C29.4 0.699976 30.8 0.0999756 32.1 0.0999756C33.5 0.0999756 34.8 0.599976 35.8 1.59998C38.3 4.09998 40.8 6.59998 43.3 9.09998C44.3 10.1 44.9 11.6 44.8 13C44.7 14.3 44.2 15.5 43.3 16.4C36.3 23.3 29.4 30.3 22.4 37.2C15.4 30.3 8.5 23.3 1.5 16.4C0.6 15.5 0.1 14.3 0 13.1V12.3C0.1 11.1 0.6 9.89998 1.5 8.99998C4 6.59998 6.4 4.09998 8.9 1.59998Z" fill="#CC0000"/>
<path d="M81.3 1C85.1 1 89 1 92.8 1C94.8 8.6 96.7 16.1 98.7 23.7C100.8 16.1 102.9 8.6 105 1C108.7 1 112.4 1 116.1 1C112.2 12.7 108.2 24.4 104.2 36.1C100.4 36.1 96.7 36.1 92.9 36.1C89.2 24.5 85.3 12.8 81.3 1Z" fill="#CC0000"/>
<path d="M149 4.3C149 3.2 149 2.1 149 1C152.7 1 156.4 1 160.2 1C160.2 2.1 160.2 3.2 160.2 4.3C159 4.3 157.9 4.3 156.7 4.3C156.7 8.1 156.7 11.9 156.7 15.7C162.6 15.7 168.5 15.7 174.4 15.7C174.4 11.9 174.4 8.1 174.4 4.3C173.2 4.3 172 4.3 170.9 4.3C170.9 3.2 170.9 2.1 170.9 1C174.6 1 178.3 1 182.1 1C182.1 2.1 182.1 3.2 182.1 4.3C180.9 4.3 179.7 4.3 178.6 4.3C178.6 13.8 178.6 23.4 178.6 32.9C179.8 32.9 181 32.9 182.1 32.9C182.1 34 182.1 35.1 182.1 36.2C178.4 36.2 174.7 36.2 170.9 36.2C170.9 35.1 170.9 34 170.9 32.9C172.1 32.9 173.3 32.9 174.4 32.9C174.4 28.2 174.4 23.6 174.4 18.9C168.5 18.9 162.6 18.9 156.7 18.9C156.7 23.6 156.7 28.2 156.7 32.9C157.9 32.9 159.1 32.9 160.2 32.9C160.2 34 160.2 35.1 160.2 36.2C156.5 36.2 152.8 36.2 149 36.2C149 35.1 149 34 149 32.9C150.2 32.9 151.4 32.9 152.5 32.9C152.5 23.4 152.5 13.8 152.5 4.3C151.3 4.3 150.1 4.3 149 4.3Z" fill="black"/>
<path d="M240.9 1C243.3 1 245.7 1 248.2 1C248.2 9.9 248.2 18.9 248.2 27.8C248.2 28.6 248.2 29.4 248.2 30.3C248.3 31 248.4 31.9 248.8 32.5C249.2 33 249.8 33.2 250.4 33.2C251.1 33.2 251.7 33.2 252.4 33C252.4 34.1 252.4 35.1 252.4 36.2C251.2 36.6 249.9 36.6 248.7 36.4C247.7 36.2 246.6 35.8 245.9 35.1C245.1 34.4 244.7 33.3 244.5 32.3C244.2 31 244.3 29.6 244.3 28.3C244.3 20.3 244.3 12.2 244.3 4.2C243.2 4.2 242.1 4.2 241 4.2C240.9 3.2 240.9 2.1 240.9 1Z" fill="black"/>
<path d="M267.1 1C269.5 1 271.9 1 274.3 1C274.3 5.5 274.3 10.1 274.3 14.6C275.4 13.1 277.1 12.1 278.9 11.6C280.7 11.1 282.6 11.1 284.5 11.5C286.4 11.9 288.1 12.9 289.4 14.3C291 16 291.8 18.2 292.1 20.5C292.2 21.6 292.2 22.7 292.2 23.7C292.2 26.8 292.2 29.9 292.2 33C293.3 33 294.4 33 295.5 33C295.5 34.1 295.5 35.1 295.5 36.2C292 36.2 288.5 36.2 284.9 36.2C284.9 35.1 284.9 34.1 284.9 33C286 33 287.1 33 288.2 33C288.2 29.3 288.2 25.6 288.2 21.8C288.2 19.9 287.7 18 286.5 16.5C285.4 15.3 283.8 14.6 282.2 14.5C280.5 14.4 278.7 14.6 277.2 15.5C276.1 16.2 275.3 17.3 274.8 18.5C274.4 19.6 274.3 20.7 274.3 21.9C274.3 25.6 274.3 29.2 274.3 32.9C275.4 32.9 276.5 32.9 277.6 32.9C277.6 34 277.6 35 277.6 36.1C274.1 36.1 270.6 36.1 267.1 36.1C267.1 35 267.1 34 267.1 32.9C268.2 32.9 269.3 32.9 270.4 32.9C270.4 23.3 270.4 13.7 270.4 4.1C269.3 4.1 268.2 4.1 267.1 4.1C267.1 3.2 267.1 2.1 267.1 1Z" fill="black"/>
<path d="M256 5.69995C257.3 5.69995 258.6 5.69995 260 5.69995C260 7.79995 260 9.79995 260 11.9C261.6 11.9 263.3 11.9 264.9 11.9C264.9 13 264.9 14 264.9 15.1C263.3 15.1 261.6 15.1 260 15.1C260 20.1 260 25 260 30C260 30.8 260.1 31.5999 260.5 32.2999C260.9 32.7999 261.5 33.0999 262.1 33.0999C263 33.1999 264 33.1 264.9 33C264.9 34.1 264.9 35.1 264.9 36.2C263.6 36.6 262.3 36.6 261 36.4C259.7 36.2 258.4 35.7999 257.5 34.7999C256.2 33.4999 256 31.5 256 29.7C256 24.8 256 19.9 256 15C254.7 15 253.5 15 252.2 15C252.2 13.9 252.2 12.9 252.2 11.8C253.5 11.8 254.7 11.8 256 11.8C256 9.89995 256 7.79995 256 5.69995Z" fill="black"/>
<path d="M192.6 11.7C194.8 11.1 197.2 11.1 199.4 11.5C202 12 204.4 13.4 206 15.4C207.2 16.9 207.9 18.6 208.3 20.4C208.7 22 208.6 23.7 208.6 25.3C201.6 25.3 194.6 25.3 187.7 25.3C187.8 27.3 188.5 29.3 189.8 30.8C190.9 32.1 192.5 33 194.2 33.3C196 33.7 197.9 33.6 199.6 33.1C201.5 32.6 203.2 31.3 204.1 29.6C205.4 29.6 206.7 29.6 208.1 29.6C207 32.1 205.1 34.2 202.6 35.4C200.8 36.3 198.8 36.7 196.8 36.8C193.7 36.9 190.6 36 188.2 34.1C185.9 32.3 184.4 29.5 183.9 26.6C183.3 23.1 183.9 19.3 185.9 16.4C187.3 14.1 189.8 12.4 192.6 11.7ZM194.3 14.7C192.6 15 190.9 15.8 189.7 17.1C188.4 18.5 187.7 20.4 187.5 22.2C193.2 22.2 198.8 22.2 204.5 22.2C204.3 20.4 203.7 18.6 202.5 17.2C201.7 16.2 200.5 15.4 199.3 14.9C197.8 14.4 196 14.4 194.3 14.7Z" fill="black"/>
<path d="M217.9 12.6C220.5 11.2 223.6 10.9 226.5 11.6C228.8 12.2 230.9 13.6 232.4 15.5C232.4 14.3 232.4 13.1 232.4 11.9C234.8 11.9 237.2 11.9 239.6 11.9C239.6 13 239.6 14 239.6 15.1C238.5 15.1 237.4 15.1 236.3 15.1C236.3 21.1 236.3 27 236.3 33C237.4 33 238.5 33 239.6 33C239.6 34.1 239.6 35.1 239.6 36.2C237.2 36.2 234.8 36.2 232.4 36.2C232.4 35 232.4 33.8 232.4 32.6C230.9 34.6 228.7 36 226.2 36.6C222.9 37.4 219.2 36.7 216.5 34.7C214.1 32.9 212.4 30.2 211.8 27.3C211.1 24.2 211.4 20.9 212.8 18.1C213.8 15.7 215.6 13.8 217.9 12.6ZM223 14.6C220.7 14.8 218.5 16.1 217.2 18.1C215.5 20.6 215.1 23.8 215.7 26.7C216.2 29.1 217.7 31.4 220 32.6C222.7 34 226.2 33.9 228.6 32.1C229.9 31.2 230.8 30 231.5 28.5C232.5 26.1 232.7 23.3 232 20.8C231.4 18.5 229.8 16.3 227.6 15.2C226.2 14.7 224.6 14.4 223 14.6Z" fill="black"/>
<path d="M299.1 30.0001C300.4 28.8001 302.7 28.9001 303.9 30.2001C304.5 30.8001 304.8 31.6001 305 32.4001V33.2001C304.9 34.0001 304.6 34.8001 304 35.4001C303 36.5001 301.4 36.8001 300 36.3001C299 35.9001 298.2 35.1 298 34.1C297.6 32.5 298 30.9001 299.1 30.0001ZM300.9 29.8001C300.4 29.9001 300 30.1001 299.6 30.5001C298.4 31.6001 298.4 33.7001 299.5 34.9001C300.4 35.9001 302.2 36 303.2 35.1C304.6 33.9 304.6 31.5001 303.2 30.4001C302.5 29.9001 301.6 29.7001 300.9 29.8001Z" fill="black"/>
<path d="M300.1 30.8C300.7 30.8 301.4 30.8 302 30.8C302.4 30.8 302.9 31 303 31.5C303.1 31.9 303.1 32.3001 302.9 32.7001C302.7 33.0001 302.4 33.1 302.1 33.1C302.5 33.7 302.9 34.3 303.2 34.8C303 34.8 302.7 34.8 302.5 34.8C302.1 34.2 301.8 33.7 301.5 33.1C301.3 33.1 301.1 33.1 300.9 33.1C300.9 33.7 300.9 34.2 300.9 34.8C300.7 34.8 300.5 34.8 300.2 34.8C300.1 33.5 300.1 32.2 300.1 30.8ZM300.7 31.4C300.7 31.8 300.7 32.2 300.7 32.6C301.1 32.6 301.6 32.6 302 32.5C302.5 32.4 302.5 31.6 302 31.5C301.6 31.3 301.2 31.4 300.7 31.4Z" fill="black"/>
</g>
<defs>
<clipPath id="clip0_118_118">
<rect width="305" height="37.2" fill="white"/>
</clipPath>
</defs>
</svg>
