<svg width="100" height="100" viewBox="0 0 100 100" fill="none" xmlns="http://www.w3.org/2000/svg">
<circle cx="50" cy="50" r="50" fill="#CCE0FF"/>
<path d="M42.9741 38.8431C42.9741 34.8097 46.2857 31.5429 50.3743 31.5429C54.4629 31.5429 57.7744 34.8097 57.7744 38.8431V51.2533C57.7744 55.2867 54.4629 58.5535 50.3743 58.5535C46.2857 58.5535 42.9741 55.2867 42.9741 51.2533V38.8431Z" fill="#6396E3"/>
<path d="M72.1995 23.3999C76.2881 23.3999 79.5996 26.6886 79.5996 30.749V69.332C79.5996 73.3923 76.2881 76.6811 72.1995 76.6811C68.1109 76.6811 64.7993 73.3923 64.7993 69.332V30.749C64.7993 26.6886 68.1109 23.3999 72.1995 23.3999Z" fill="#6396E3"/>
<path d="M20.4004 30.7583C20.4004 26.6928 23.712 23.4 27.8006 23.4C31.8891 23.4 35.2007 26.6928 35.2007 30.7583V69.3229C35.2007 73.3847 31.8891 76.6812 27.8006 76.6812C23.712 76.6812 20.4004 73.3847 20.4004 69.3229V30.7583Z" fill="#6396E3"/>
<path fill-rule="evenodd" clip-rule="evenodd" d="M27.8001 76.9812C23.7115 76.9812 20.3999 73.6696 20.3999 69.581V50.1889C20.3999 50.1889 24.4811 50.9511 27.8112 50.9511C31.1412 50.9511 35.2002 50.1889 35.2002 50.1889V69.581C35.2002 73.6659 31.8887 76.9812 27.8001 76.9812Z" fill="#FB9B7A"/>
</svg>
