<svg width="360" height="314" viewBox="0 0 350 314" fill="none" xmlns="http://www.w3.org/2000/svg">
<path d="M135.542 224.782C135.542 224.782 129.281 239.261 162.189 243.124V257.766H200.234V218.991L135.053 217.22L135.542 224.782Z" fill="#BE7C5E"/>
<path d="M153.424 163.62C152.502 165.079 151.042 166.112 149.362 166.494C147.682 166.877 145.919 166.578 144.459 165.662L125.465 153.112C124.01 152.188 122.979 150.724 122.597 149.04C122.215 147.357 122.514 145.59 123.428 144.127C124.35 142.668 125.81 141.635 127.49 141.252C129.17 140.87 130.932 141.169 132.393 142.085L151.383 154.627C152.841 155.551 153.874 157.016 154.256 158.701C154.639 160.387 154.34 162.155 153.424 163.62Z" fill="#BE7C5E"/>
<path d="M193.012 235.402C200.903 235.402 207.3 228.991 207.3 221.083C207.3 213.174 200.903 206.763 193.012 206.763C185.122 206.763 178.725 213.174 178.725 221.083C178.725 228.991 185.122 235.402 193.012 235.402Z" fill="#BE7C5E"/>
<path d="M190.441 126.636H135.709C134.466 126.636 133.459 127.646 133.459 128.892V231.535C133.459 232.781 134.466 233.791 135.709 233.791H190.441C191.684 233.791 192.691 232.781 192.691 231.535V128.892C192.691 127.646 191.684 126.636 190.441 126.636Z" fill="url(#paint0_linear)"/>
<path d="M189.382 128.085H136.763C135.379 128.085 134.258 129.21 134.258 130.597V229.834C134.258 231.221 135.379 232.346 136.763 232.346H189.382C190.766 232.346 191.888 231.221 191.888 229.834V130.597C191.888 129.21 190.766 128.085 189.382 128.085Z" fill="white"/>
<path d="M177.551 130.7C177.384 131.806 176.828 132.815 175.984 133.545C175.139 134.276 174.061 134.679 172.945 134.683H153.042C151.927 134.679 150.849 134.275 150.005 133.545C149.161 132.814 148.605 131.805 148.438 130.7H137.893C137.606 130.7 137.321 130.756 137.055 130.866C136.79 130.976 136.548 131.138 136.345 131.342C136.141 131.545 135.98 131.787 135.87 132.053C135.76 132.319 135.703 132.605 135.703 132.893V227.534C135.703 227.823 135.76 228.108 135.869 228.374C135.979 228.64 136.14 228.882 136.344 229.086C136.547 229.29 136.788 229.452 137.054 229.562C137.319 229.672 137.604 229.729 137.891 229.729H188.254C188.542 229.729 188.826 229.673 189.092 229.563C189.358 229.453 189.599 229.291 189.802 229.088C190.006 228.884 190.167 228.642 190.277 228.376C190.387 228.11 190.444 227.824 190.444 227.536V132.895C190.444 132.607 190.388 132.321 190.278 132.055C190.168 131.789 190.007 131.547 189.804 131.343C189.601 131.139 189.359 130.977 189.094 130.867C188.828 130.757 188.543 130.7 188.256 130.7H177.551Z" fill="#FB9B7A"/>
<path d="M169.209 131.946H157.1C156.897 131.946 156.733 132.111 156.733 132.315V132.383C156.733 132.586 156.897 132.751 157.1 132.751H169.209C169.412 132.751 169.576 132.586 169.576 132.383V132.315C169.576 132.111 169.412 131.946 169.209 131.946Z" fill="#DBDBDB"/>
<path d="M172.305 132.751C172.57 132.751 172.786 132.535 172.786 132.269C172.786 132.002 172.57 131.786 172.305 131.786C172.039 131.786 171.823 132.002 171.823 132.269C171.823 132.535 172.039 132.751 172.305 132.751Z" fill="#DBDBDB"/>
<path d="M198.776 179.625C197.967 176.119 194.476 173.933 190.977 174.743C187.479 175.553 185.298 179.053 186.106 182.559L194.867 220.562C195.675 224.068 199.167 226.254 202.665 225.444C206.164 224.633 208.345 221.134 207.536 217.628L198.776 179.625Z" fill="#BE7C5E"/>
<path d="M205.769 254.448H154.33V264.391H205.769V254.448Z" fill="#6396E3"/>
<g opacity="0.5">
<path opacity="0.5" d="M163.073 196.776C172.198 196.776 179.596 189.362 179.596 180.215C179.596 171.069 172.198 163.655 163.073 163.655C153.947 163.655 146.55 171.069 146.55 180.215C146.55 189.362 153.947 196.776 163.073 196.776Z" fill="url(#paint1_linear)"/>
</g>
<path d="M156.323 178.135L162.154 183.493L170.416 171.317L173.333 173.753L162.154 188.365L153.893 179.111L156.323 178.135Z" fill="white"/>
<path d="M142.503 220.736C141.581 222.195 140.12 223.228 138.44 223.611C136.76 223.993 134.998 223.694 133.537 222.778L125.623 217.004C124.168 216.08 123.137 214.616 122.755 212.933C122.374 211.249 122.672 209.482 123.586 208.019C124.508 206.56 125.968 205.527 127.648 205.144C129.328 204.762 131.091 205.061 132.551 205.977L140.463 211.762C141.916 212.686 142.945 214.147 143.327 215.828C143.709 217.509 143.413 219.273 142.503 220.736Z" fill="#BE7C5E"/>
<path d="M145.874 201.906C144.951 203.364 143.491 204.397 141.811 204.78C140.131 205.163 138.369 204.863 136.908 203.948L124.019 195.588C122.564 194.664 121.533 193.2 121.151 191.517C120.77 189.833 121.068 188.067 121.982 186.603C122.904 185.145 124.364 184.111 126.044 183.729C127.724 183.346 129.487 183.645 130.947 184.561L143.836 192.92C145.291 193.845 146.322 195.308 146.704 196.992C147.086 198.675 146.787 200.442 145.874 201.906Z" fill="#BE7C5E"/>
<path d="M149.247 183.088C148.324 184.546 146.864 185.579 145.184 185.962C143.504 186.345 141.742 186.045 140.281 185.13L124.021 174.519C122.566 173.594 121.535 172.131 121.153 170.447C120.772 168.763 121.07 166.997 121.984 165.533C122.906 164.075 124.366 163.041 126.046 162.659C127.726 162.276 129.489 162.575 130.949 163.491L147.207 174.102C148.663 175.026 149.694 176.49 150.076 178.174C150.458 179.857 150.16 181.624 149.247 183.088Z" fill="#BE7C5E"/>
<defs>
<linearGradient id="paint0_linear" x1="35126.7" y1="70211.8" x2="35126.7" y2="7852.05" gradientUnits="userSpaceOnUse">
<stop stop-color="#808080" stop-opacity="0.25"/>
<stop offset="0.54" stop-color="#808080" stop-opacity="0.12"/>
<stop offset="1" stop-color="#808080" stop-opacity="0.1"/>
</linearGradient>
<linearGradient id="paint1_linear" x1="11796" y1="12780.4" x2="11796" y2="6822.27" gradientUnits="userSpaceOnUse">
<stop stop-color="#808080" stop-opacity="0.25"/>
<stop offset="0.54" stop-color="#808080" stop-opacity="0.12"/>
<stop offset="1" stop-color="#808080" stop-opacity="0.1"/>
</linearGradient>
</defs>
</svg>
